<svg class="lumia-icon" width="79" height="79" viewBox="0 0 79 79" fill="none" xmlns="http://www.w3.org/2000/svg">
<path d="M39.4996 78.4109C39.6175 78.4109 39.7354 78.4109 39.8533 78.293C59.0727 71.8079 71.925 53.8855 71.925 33.6049V12.9706C71.925 12.2632 71.4533 11.7915 70.7459 11.7915C52.2339 11.7915 41.0324 1.29749 40.2071 0.825845C39.7354 0.472114 39.2638 0.472114 38.7921 0.825845C37.9668 1.29749 26.6474 11.7915 8.25332 11.7915C7.54586 11.7915 7.07422 12.2632 7.07422 12.9706V33.6049C7.07422 53.8855 19.9265 71.8079 39.1459 78.4109C39.2638 78.4109 39.3817 78.4109 39.4996 78.4109ZM9.43243 33.6049V14.1497C27.5906 13.6781 38.91 3.53779 39.4996 3.18405C40.2071 3.53779 51.2906 13.6781 69.5668 14.1497V33.6049C69.5668 52.7064 57.5399 69.6855 39.4996 76.0527C21.4593 69.6855 9.43243 52.7064 9.43243 33.6049Z" fill="black"></path>
<path d="M39.971 72.0433C55.771 65.7941 66.0292 50.7015 66.0292 33.6045V18.6299C66.0292 18.0403 65.5575 17.5687 64.968 17.4508C56.0068 16.5075 47.3993 13.3239 40.0889 8.13585C39.7351 7.90003 39.1456 7.90003 38.7919 8.13585C31.4814 13.206 22.874 16.3896 13.9128 17.4508C13.3232 17.5687 12.8516 18.0403 12.8516 18.6299V33.6045C12.8516 50.7015 23.1098 65.7941 39.0277 72.0433C39.1456 72.0433 39.2635 72.1612 39.4993 72.1612C39.7351 72.1612 39.7351 72.1612 39.971 72.0433ZM15.3277 33.6045V19.5732C23.9351 18.512 32.3068 15.3284 39.4993 10.4941C46.6919 15.3284 55.0635 18.512 63.671 19.5732V33.4866C63.671 49.5224 54.2381 63.6717 39.4993 69.6851C24.7605 63.6717 15.3277 49.5224 15.3277 33.6045Z" fill="black"></path>
<path d="M53.5314 30.303C53.0598 29.8313 52.3523 29.8313 51.8807 30.303L34.4299 47.6358L27.4732 40.6791C27.0016 40.2074 26.2941 40.2074 25.8225 40.6791C25.3508 41.1507 25.3508 41.8582 25.8225 42.3298L33.6046 50.1119C33.8404 50.3477 34.0762 50.4656 34.4299 50.4656C34.7837 50.4656 35.0195 50.3477 35.2553 50.1119L53.5314 31.8358C54.0031 31.4821 54.0031 30.7746 53.5314 30.303Z" fill="black"></path>
</svg>