<svg class="lumia-icon" width="88" height="88" viewBox="0 0 88 88" fill="none" xmlns="http://www.w3.org/2000/svg">
<g clip-path="url(#clip0_3965_437)">
<path d="M71.8849 67.6778C70.909 67.6724 69.9535 67.9571 69.1398 68.4959C68.3261 69.0347 67.6909 69.8032 67.315 70.7038C66.939 71.6044 66.8392 72.5964 67.0283 73.5538C67.2173 74.5113 67.6867 75.3909 68.3768 76.081C69.0668 76.771 69.9465 77.2404 70.9039 77.4295C71.8613 77.6185 72.8533 77.5187 73.7539 77.1428C74.6545 76.7668 75.423 76.1316 75.9618 75.3179C76.5006 74.5042 76.7854 73.5487 76.7799 72.5728C76.7799 71.2746 76.2642 70.0295 75.3462 69.1115C74.4282 68.1935 73.1832 67.6778 71.8849 67.6778V67.6778ZM71.8849 74.8278C71.4378 74.8333 70.9991 74.7057 70.6247 74.4612C70.2503 74.2168 69.957 73.8665 69.7821 73.455C69.6072 73.0434 69.5586 72.5892 69.6425 72.15C69.7263 71.7108 69.9389 71.3064 70.2532 70.9883C70.5674 70.6701 70.9691 70.4526 71.4073 70.3634C71.8454 70.2741 72.3003 70.3171 72.7139 70.487C73.1276 70.6568 73.4814 70.9458 73.7304 71.3172C73.9794 71.6886 74.1124 72.1256 74.1124 72.5728C74.1125 73.1661 73.8787 73.7356 73.4617 74.1577C73.0447 74.5798 72.4782 74.8206 71.8849 74.8278V74.8278ZM21.4499 67.6778C20.474 67.6724 19.5185 67.9571 18.7048 68.4959C17.8911 69.0347 17.2559 69.8032 16.88 70.7038C16.504 71.6044 16.4042 72.5964 16.5933 73.5538C16.7823 74.5113 17.2517 75.3909 17.9418 76.081C18.6318 76.771 19.5115 77.2404 20.4689 77.4295C21.4263 77.6185 22.4183 77.5187 23.3189 77.1428C24.2195 76.7668 24.988 76.1316 25.5268 75.3179C26.0656 74.5042 26.3504 73.5487 26.3449 72.5728C26.3449 71.2746 25.8292 70.0295 24.9112 69.1115C23.9932 68.1935 22.7482 67.6778 21.4499 67.6778V67.6778ZM21.4499 74.8278C21.0039 74.8278 20.5679 74.6956 20.1971 74.4478C19.8263 74.2 19.5373 73.8478 19.3666 73.4358C19.1959 73.0237 19.1512 72.5703 19.2383 72.1329C19.3253 71.6955 19.54 71.2937 19.8554 70.9783C20.1708 70.6629 20.5726 70.4481 21.01 70.3611C21.4474 70.2741 21.9008 70.3188 22.3129 70.4895C22.7249 70.6601 23.0771 70.9492 23.3249 71.32C23.5727 71.6908 23.7049 72.1268 23.7049 72.5728C23.7049 72.8689 23.6466 73.1622 23.5333 73.4358C23.4199 73.7093 23.2538 73.9579 23.0445 74.1673C22.8351 74.3767 22.5865 74.5428 22.3129 74.6562C22.0393 74.7695 21.7461 74.8278 21.4499 74.8278V74.8278Z" fill="black"></path>
<path d="M87.8075 50.7928L80.135 38.0053L79.86 37.5103C78.7684 35.5467 77.1746 33.9084 75.2418 32.7632C73.309 31.618 71.1066 31.007 68.86 30.9928H55.9075V19.2503C55.9112 19.0746 55.8797 18.9 55.815 18.7367C55.7503 18.5734 55.6537 18.4246 55.5307 18.2991C55.4078 18.1736 55.261 18.0739 55.0991 18.0058C54.9371 17.9378 54.7632 17.9027 54.5875 17.9028H42.4325C42.6149 16.3239 42.6701 14.733 42.5975 13.1453C42.5566 12.8197 42.396 12.5211 42.1468 12.3075C41.8977 12.094 41.578 11.9809 41.25 11.9903C39.4075 11.9903 36.7125 11.4953 35.75 6.24279C35.6924 5.93446 35.529 5.6559 35.2881 5.4551C35.0471 5.2543 34.7437 5.14385 34.43 5.14279H21.4775C21.1664 5.13728 20.8633 5.24187 20.6217 5.43811C20.3802 5.63434 20.2158 5.9096 20.1575 6.21529C19.25 11.4953 16.5 12.0453 14.685 11.9903C14.344 11.9825 14.0133 12.107 13.7621 12.3377C13.5109 12.5684 13.3587 12.8874 13.3375 13.2278C13.2482 14.8153 13.3034 16.4077 13.5025 17.9853H1.32C0.981235 17.9916 0.65727 18.1252 0.412644 18.3597C0.168018 18.5941 0.020686 18.9121 0 19.2503L0 72.6003C0.00703008 72.9482 0.148358 73.2798 0.394399 73.5259C0.640439 73.7719 0.972117 73.9133 1.32 73.9203H11.275C11.6141 76.3816 12.8327 78.637 14.7057 80.2695C16.5786 81.9021 18.9792 82.8015 21.4637 82.8015C23.9483 82.8015 26.3489 81.9021 28.2218 80.2695C30.0948 78.637 31.3134 76.3816 31.6525 73.9203H61.71C62.0259 76.3958 63.2334 78.6713 65.1064 80.3205C66.9794 81.9696 69.3894 82.8794 71.885 82.8794C74.3806 82.8794 76.7906 81.9696 78.6636 80.3205C80.5366 78.6713 81.7441 76.3958 82.06 73.9203H86.68C87.0279 73.9133 87.3596 73.7719 87.6056 73.5259C87.8516 73.2798 87.993 72.9482 88 72.6003V51.4803C88.0082 51.2368 87.941 50.9966 87.8075 50.7928V50.7928ZM22.55 7.81028H33.385C33.5833 9.50684 34.3342 11.091 35.522 12.3186C36.7098 13.5461 38.2684 14.3488 39.9575 14.6028C39.9492 16.1585 39.8298 17.7116 39.6 19.2503C39.2244 22.8155 37.9635 26.2303 35.9319 29.184C33.9003 32.1378 31.1625 34.5367 27.9675 36.1628C24.7679 34.5428 22.0261 32.1454 19.9937 29.1905C17.9613 26.2356 16.7033 22.8177 16.335 19.2503C16.0843 17.7137 15.9555 16.1597 15.95 14.6028C17.6441 14.3543 19.209 13.5541 20.4022 12.3261C21.5954 11.0981 22.3503 9.51083 22.55 7.81028V7.81028ZM21.4775 80.1903C19.9686 80.1957 18.492 79.7529 17.2351 78.918C15.9782 78.083 14.9976 76.8936 14.4177 75.5006C13.8377 74.1076 13.6845 72.5737 13.9776 71.0935C14.2706 69.6133 14.9967 68.2534 16.0637 67.1864C17.1306 66.1195 18.4905 65.3934 19.9707 65.1004C21.4509 64.8073 22.9848 64.9605 24.3778 65.5404C25.7708 66.1204 26.9603 67.101 27.7952 68.3579C28.6301 69.6148 29.0729 71.0914 29.0675 72.6003C29.0603 74.611 28.2583 76.5374 26.8364 77.9592C25.4146 79.3811 23.4883 80.183 21.4775 80.1903V80.1903ZM53.2675 32.3128V71.2528H31.6525V70.4278L31.4875 69.8228V69.4928L31.02 68.7503V68.5303L30.6075 67.6503C30.5991 67.5772 30.5991 67.5034 30.6075 67.4303L30.25 66.8253L30.03 66.5503C29.9265 66.3831 29.8067 66.2265 29.6725 66.0828L29.425 65.7803L29.04 65.3678L28.7375 65.0653L28.3525 64.7078L28.0225 64.4603L27.5 64.1853L27.17 63.9378L26.7025 63.6628L26.345 63.4703L25.7125 63.2503L25.3275 63.0853L24.75 62.8653L24.365 62.7278H22.4675C22.1381 62.7004 21.8069 62.7004 21.4775 62.7278C21.1389 62.6996 20.7986 62.6996 20.46 62.7278H18.535L18.1225 62.8653L17.6 63.0578L17.215 63.2503L16.7475 63.4978L16.5 63.6628L16.06 63.9378L15.7025 64.1853L15.2625 64.5153L14.9325 64.7628L14.5475 65.1203L14.245 65.4228L13.75 65.8353C13.6443 65.9224 13.5517 66.0243 13.475 66.1378L13.1175 66.6053L12.925 66.8803L12.54 67.4853V67.7053C12.375 67.9849 12.2369 68.2796 12.1275 68.5853C12.1275 68.5853 12.1275 68.5853 12.1275 68.8053L11.88 69.4928V69.8228L11.715 70.4278V71.2528H2.75V20.6528H13.8875V21.1203L14.1625 22.0003V22.5228C14.2137 22.7735 14.278 23.0213 14.355 23.2653L14.52 23.8153L14.74 24.5303C14.74 24.7228 14.74 24.9153 14.9325 25.1353C15.0122 25.369 15.104 25.5985 15.2075 25.8228C15.2075 26.0428 15.2075 26.2353 15.4275 26.4278L15.73 27.1428L16.005 27.7203L16.3625 28.4353C16.4525 28.6333 16.5535 28.8261 16.665 29.0128L17.05 29.7003C17.1793 29.8958 17.2986 30.0977 17.4075 30.3053L17.8475 30.9653L18.26 31.5428L18.755 32.2028L19.195 32.7528L19.7725 33.3853L20.24 33.9078L20.9 34.5403L21.4225 35.0353L22.1375 35.6403L22.6875 36.0803L23.54 36.6578L24.09 37.0703L25.1075 37.6478C25.2719 37.7646 25.4468 37.8659 25.63 37.9503C26.163 38.2581 26.714 38.5336 27.28 38.7753C27.4622 38.8037 27.6478 38.8037 27.83 38.7753C28.002 38.8142 28.1805 38.8142 28.3525 38.7753C28.93 38.5278 29.48 38.2528 30.03 37.9503L30.525 37.6753L31.5425 37.0703L32.12 36.6853C32.4062 36.4993 32.6816 36.2973 32.945 36.0803L33.495 35.6403L34.2375 35.0353L34.7325 34.5678L35.3925 33.9353L35.86 33.4128C36.0525 33.1928 36.2725 32.9728 36.4375 32.7528C36.6025 32.5328 36.74 32.3953 36.8775 32.2303L37.4 31.5428C37.519 31.3531 37.6475 31.1696 37.785 30.9928L38.5 30.2503C38.629 30.0641 38.7484 29.8713 38.8575 29.6728C39.0021 29.4436 39.1307 29.2047 39.2425 28.9578L39.5725 28.3803L39.9025 27.6653C40.0053 27.4783 40.0971 27.2855 40.1775 27.0878C40.1775 26.8403 40.3975 26.6203 40.48 26.3728L40.7275 25.7953L40.975 25.0528C40.975 24.8603 41.1125 24.6678 41.1675 24.5028L41.25 23.7328C41.3087 23.5622 41.3546 23.3876 41.3875 23.2103C41.3875 22.9628 41.3875 22.6878 41.6075 22.4403C41.8275 22.1928 41.6075 22.1103 41.6075 21.9453C41.6075 21.7803 41.6075 21.4228 41.7725 21.1478C41.785 21.0014 41.785 20.8542 41.7725 20.7078H53.02L53.2675 32.3128ZM78.2375 40.0403L85.25 51.4803H69.96C68.6978 51.4805 67.4861 50.9848 66.5859 50.1C65.6857 49.2153 65.1691 48.0123 65.1475 46.7503V40.0403H78.2375ZM71.885 80.1903C70.3772 80.1903 68.9034 79.7428 67.6501 78.9046C66.3968 78.0663 65.4205 76.875 64.8448 75.4815C64.269 74.088 64.1198 72.5549 64.4159 71.0765C64.7121 69.5981 65.4403 68.2409 66.5084 67.1767C67.5765 66.1124 68.9364 65.3891 70.4158 65.0983C71.8953 64.8075 73.4278 64.9623 74.8192 65.5431C76.2106 66.1238 77.3984 67.1045 78.2321 68.3608C79.0658 69.6171 79.5079 71.0925 79.5025 72.6003C79.4952 74.6158 78.6895 76.5463 77.2617 77.9689C75.8339 79.3915 73.9005 80.1903 71.885 80.1903V80.1903ZM85.25 71.2528H82.0875V70.4278C82.0548 70.2234 82.0089 70.0213 81.95 69.8228C81.9382 69.7131 81.9382 69.6025 81.95 69.4928L81.4275 68.7503V68.5303L81.015 67.6503L80.8775 67.4303C80.7686 67.2227 80.6493 67.0208 80.52 66.8253L80.3 66.5503C80.1965 66.3831 80.0767 66.2265 79.9425 66.0828L79.75 65.8353L79.365 65.4228C79.2712 65.3152 79.1701 65.2141 79.0625 65.1203L78.6775 64.7628L78.3475 64.5153L77.935 64.1853L77.5775 63.9378L77.11 63.6628L76.7525 63.4703L76.12 63.2503L75.735 63.0853L75.2125 62.8928L74.8275 62.7553H72.9025C72.5639 62.7287 72.2236 62.7287 71.885 62.7553C71.5464 62.7271 71.2061 62.7271 70.8675 62.7553H68.9425L68.5575 62.8928L68.035 63.0853L67.65 63.2503L67.155 63.4978L66.77 63.6903L66.33 63.9653L65.9725 64.2128L65.5325 64.5428L65.23 64.7903L64.8175 65.1478L64.515 65.4503L64.1575 65.8628L63.8825 66.1653L63.5525 66.6328L63.3325 66.9078C63.2032 67.1033 63.0839 67.3052 62.975 67.5128C62.9666 67.5859 62.9666 67.6597 62.975 67.7328C62.81 68.0124 62.6719 68.3071 62.5625 68.6128V68.8328C62.4515 69.0507 62.3683 69.2816 62.315 69.5203C62.3032 69.63 62.3032 69.7406 62.315 69.8503L62.15 70.4553V71.2803H56.375V33.6603H68.75C70.2386 33.6563 71.7089 33.988 73.0516 34.6307C74.3942 35.2735 75.5746 36.2108 76.505 37.3728H63.8275C63.6519 37.3691 63.4772 37.4006 63.3139 37.4653C63.1506 37.53 63.0018 37.6266 62.8763 37.7495C62.7508 37.8725 62.6511 38.0192 62.583 38.1812C62.515 38.3432 62.48 38.5171 62.48 38.6928V46.7503C62.4873 48.7293 63.2786 50.6248 64.6805 52.0217C66.0825 53.4185 67.9809 54.2028 69.96 54.2028H85.25V71.2528Z" fill="black"></path>
<path d="M25.1904 26.5095C25.4518 26.7537 25.7952 26.8911 26.1529 26.8945C26.5016 26.8869 26.8349 26.7497 27.0879 26.5095L34.2379 19.2495C34.3821 19.1298 34.4998 18.9813 34.5833 18.8135C34.6669 18.6457 34.7146 18.4623 34.7232 18.2751C34.7319 18.0878 34.7014 17.9008 34.6337 17.726C34.566 17.5512 34.4626 17.3925 34.33 17.2599C34.1975 17.1274 34.0387 17.0239 33.8639 16.9562C33.6891 16.8885 33.5021 16.858 33.3149 16.8667C33.1276 16.8753 32.9442 16.923 32.7764 17.0066C32.6086 17.0901 32.4601 17.2078 32.3404 17.352L26.1529 23.677L23.5679 21.092C23.3155 20.8418 22.9745 20.7014 22.6191 20.7014C22.2637 20.7014 21.9227 20.8418 21.6704 21.092C21.4327 21.3508 21.3008 21.6894 21.3008 22.0408C21.3008 22.3922 21.4327 22.7307 21.6704 22.9895L25.1904 26.5095Z" fill="black"></path>
</g>
<defs>
<clipPath id="clip0_3965_437">
<rect width="88" height="88" fill="white"></rect>
</clipPath>
</defs>
</svg>