<svg class="lumia-icon" width="78" height="78" viewBox="0 0 78 78" fill="none" xmlns="http://www.w3.org/2000/svg">
<g clip-path="url(#clip0_3965_466)">
<path d="M72.2158 72.1861L71.1474 63.3401C71.1456 63.3254 71.1436 63.3107 71.1412 63.2961C70.8477 61.4888 70.0052 59.8155 68.7281 58.5035C67.4511 57.1914 65.8012 56.304 64.0025 55.9618L53.1069 53.9123H53.1061L50.1552 53.3572C53.015 52.8013 55.8303 52.0373 58.5788 51.0713C59.8059 50.6384 60.845 49.7934 61.5192 48.6804C62.1934 47.5674 62.4609 46.2551 62.2761 44.967L60.576 33.3116H61.5245C62.1325 33.311 62.7154 33.0691 63.1453 32.6392C63.5752 32.2092 63.8171 31.6263 63.8177 31.0183V26.3622C63.8171 25.7542 63.5752 25.1712 63.1453 24.7413C62.7154 24.3113 62.1325 24.0695 61.5245 24.0688H59.6385C59.4911 23.7172 59.3046 23.3834 59.0826 23.0735L58.1342 16.5715C57.4619 11.9675 55.1549 7.75936 51.635 4.71651C48.1151 1.67366 43.6176 -0.000559865 38.9648 1.40441e-07H38.1053C33.3876 0.00622752 28.8338 1.73118 25.2959 4.8521C21.758 7.97303 19.4785 12.2761 18.8838 16.9562L17.9915 24.0688H16.1259C15.5178 24.0694 14.9349 24.3113 14.5049 24.7412C14.075 25.1712 13.8331 25.7541 13.8325 26.3622V31.0183C13.8331 31.6263 14.075 32.2093 14.5049 32.6392C14.9349 33.0692 15.5178 33.311 16.1259 33.3116H16.8321L15.359 45.0551C15.2052 46.3227 15.4863 47.6051 16.1563 48.6922C16.8262 49.7793 17.8454 50.6068 19.0469 51.0393C21.8806 52.0413 24.7859 52.8277 27.7381 53.3919L25.2242 53.8863L25.2072 53.8896L14.4352 56.008C12.7593 56.34 11.2142 57.1468 9.98393 58.3322C8.75364 59.5176 7.89002 61.0317 7.49591 62.694C7.49104 62.714 7.48682 62.7341 7.48327 62.7544L5.85365 71.8359C5.68463 72.5742 5.6842 73.3411 5.85239 74.0796C6.02057 74.818 6.35305 75.5091 6.82511 76.1014C7.29717 76.6937 7.89665 77.172 8.57901 77.5007C9.26136 77.8294 10.009 78.0001 10.7664 78H67.2342C67.9615 78 68.6803 77.8426 69.3411 77.5387C70.0019 77.2347 70.5891 76.7913 71.0624 76.239C71.5356 75.6866 71.8838 75.0384 72.0829 74.3388C72.282 73.6393 72.3273 72.9049 72.2158 72.1861V72.1861ZM60.0291 26.3574L61.5327 26.362L61.5245 31.0265H60.0291V26.3574ZM58.5093 34.9751L60.0147 45.297C60.1239 46.0609 59.9649 46.839 59.5647 47.4988C59.1646 48.1586 58.5481 48.6593 57.8202 48.9156C54.6535 50.0289 51.3953 50.8627 48.083 51.4076V47.002L48.9095 46.485C50.1138 45.7348 51.1302 44.7187 51.8807 43.5146H52.0671C53.3864 43.5132 54.6512 42.9887 55.5842 42.056C56.5171 41.1232 57.042 39.8585 57.0437 38.5393V35.9845C57.5877 35.7365 58.0837 35.3949 58.5093 34.9751V34.9751ZM43.2612 47.3235C41.929 48.1494 40.3927 48.587 38.8253 48.587C37.2578 48.587 35.7215 48.1494 34.3893 47.3235L32.0205 45.8415C32.0167 45.8389 32.0124 45.8366 32.0085 45.834L29.9518 44.5473C28.9421 43.9206 28.1096 43.0458 27.5336 42.0064C26.9575 40.9669 26.6571 39.7973 26.6609 38.6089V23.1471C27.7839 22.993 28.8586 22.5917 29.8078 21.9721C30.757 21.3525 31.5569 20.5301 32.1499 19.5641C32.8761 20.2821 33.6635 20.9356 34.503 21.5172L34.7248 21.6682C39.924 25.192 45.5368 24.3707 50.989 23.4363V38.6092C50.9901 39.5068 50.8192 40.3963 50.4853 41.2296H42.8243C42.5915 40.5708 42.1605 40.0004 41.5904 39.5966C41.0202 39.1929 40.3391 38.9756 39.6404 38.9747H37.7C36.805 38.9758 35.9469 39.3318 35.314 39.9647C34.6811 40.5976 34.3251 41.4557 34.3241 42.3508V42.3935C34.3251 43.2885 34.6812 44.1466 35.314 44.7794C35.9469 45.4123 36.805 45.7683 37.7 45.7694H39.6404C40.339 45.7685 41.0202 45.5512 41.5903 45.1475C42.1604 44.7438 42.5915 44.1734 42.8243 43.5147H48.9838C48.5969 43.908 48.1653 44.2547 47.6978 44.5476L43.2612 47.3235ZM45.7979 48.4319V53.6341C45.7974 53.7641 45.7674 53.8922 45.7102 54.0088C45.653 54.1255 45.5701 54.2277 45.4677 54.3077L39.0145 59.3304L32.8387 54.322C32.6645 54.1815 32.5528 53.978 32.528 53.7556C32.5274 53.7472 32.5274 53.7388 32.5266 53.7306C32.5248 53.7073 32.5226 53.6838 32.5226 53.66V48.8513L33.1777 49.2611C34.8738 50.3127 36.8298 50.8698 38.8254 50.8697C40.821 50.8697 42.7769 50.3124 44.4729 49.2608L45.7979 48.4319ZM40.7312 42.3506V42.3933C40.7309 42.6825 40.6159 42.9598 40.4114 43.1642C40.2069 43.3687 39.9296 43.4838 39.6404 43.4841H37.7C37.4108 43.4838 37.1336 43.3687 36.9291 43.1642C36.7246 42.9598 36.6096 42.6825 36.6093 42.3933V42.3506C36.6096 42.0614 36.7246 41.7842 36.9291 41.5797C37.1336 41.3751 37.4108 41.2601 37.7 41.2597H39.6404C39.9296 41.2601 40.2069 41.3751 40.4114 41.5797C40.6159 41.7842 40.7309 42.0614 40.7312 42.3506V42.3506ZM52.9431 41.0801C53.1631 40.2749 53.2745 39.4438 53.2741 38.6091V36.4412H54.7586V38.5393C54.7576 39.099 54.5822 39.6445 54.2568 40.0998C53.9314 40.5552 53.4723 40.8979 52.9431 41.0803V41.0801ZM57.7439 26.0218V31.3586C57.7431 32.1003 57.4481 32.8113 56.9237 33.3358C56.3993 33.8602 55.6882 34.1552 54.9466 34.1561H53.2741V23.2243H54.9466C55.6882 23.2252 56.3993 23.5202 56.9237 24.0447C57.4481 24.5691 57.7431 25.2802 57.7439 26.0218V26.0218ZM21.1509 17.2406C21.6756 13.1126 23.6863 9.31721 26.8069 6.56453C29.9276 3.81185 33.9442 2.29051 38.1054 2.28516H38.965C43.0688 2.28457 47.0358 3.76117 50.1404 6.44496C53.245 9.12875 55.2799 12.8404 55.873 16.9012L56.4976 21.1825C55.9964 21.0212 55.4732 20.9391 54.9467 20.9392H52.1893C52.1837 20.939 52.1782 20.9395 52.1725 20.9392H52.1317L52.1271 20.9395C52.0915 20.9396 52.0559 20.9415 52.0205 20.945L52.0053 20.9467C51.9833 20.9491 51.9616 20.9505 51.9398 20.9543L51.1576 21.0885C45.7392 22.0219 40.6212 22.9035 36.007 19.7765L35.7991 19.6348C34.6493 18.8382 33.6144 17.8873 32.7236 16.8088C32.5932 16.6509 32.4228 16.5309 32.2302 16.4614C32.0376 16.3919 31.8298 16.3755 31.6287 16.4138C31.4275 16.4521 31.2404 16.5438 31.0868 16.6792C30.9332 16.8146 30.8188 16.9888 30.7556 17.1836C30.3998 18.2855 29.7005 19.2446 28.7602 19.9204C27.82 20.5962 26.6881 20.9533 25.5302 20.9393L25.5252 20.9395L25.5185 20.9392H22.7036C21.9891 20.9394 21.2827 21.0913 20.6313 21.3849L21.1509 17.2406ZM19.9063 26.0217C19.9072 25.2801 20.2022 24.5691 20.7265 24.0448C21.2509 23.5204 21.9619 23.2254 22.7035 23.2245H24.3758V34.1561H22.7035C21.9618 34.1552 21.2508 33.8602 20.7263 33.3358C20.2019 32.8113 19.9069 32.1003 19.9061 31.3586L19.9063 26.0217ZM16.1175 31.0183L16.1257 26.3539H17.621V31.023L16.1175 31.0183ZM19.8091 48.8851C19.0975 48.6286 18.4941 48.1382 18.0975 47.4941C17.7009 46.85 17.5348 46.0903 17.6262 45.3395L18.9509 34.7787C19.4259 35.3023 20.0051 35.7206 20.6513 36.007C21.2976 36.2933 21.9966 36.4412 22.7035 36.4412H24.3758V38.6091C24.3707 40.1852 24.7691 41.7363 25.5331 43.1149C26.297 44.4934 27.401 45.6535 28.7401 46.4848L30.2376 47.4217V51.5044C26.6871 50.9597 23.1956 50.0828 19.8091 48.8851V48.8851ZM30.6156 55.155C30.8124 55.5174 31.0787 55.8375 31.3993 56.0969L37.717 61.2202C38.0769 61.5148 38.5265 61.6777 38.9915 61.6822C39.4566 61.6868 39.9092 61.5326 40.2748 61.2451L46.8708 56.1114C47.187 55.8645 47.4527 55.5592 47.6536 55.212L51.6107 55.9562C51.4636 56.4036 51.1877 56.7977 50.8176 57.089L39.0623 66.238C39.0142 66.2756 38.9547 66.2957 38.8936 66.2951C38.8326 66.2945 38.7736 66.2731 38.7262 66.2345L27.465 57.1012C27.0918 56.7986 26.82 56.3891 26.6862 55.9277L30.6156 55.155ZM69.3319 74.7467C69.0733 75.0505 68.7518 75.2944 68.3896 75.4615C68.0273 75.6287 67.6331 75.7151 67.2342 75.7148H10.7664C10.351 75.7149 9.94086 75.621 9.56684 75.4401C9.19282 75.2592 8.86457 74.996 8.60666 74.6703C8.34875 74.3446 8.16787 73.9647 8.07756 73.5592C7.98726 73.1536 7.98986 72.7329 8.08518 72.3285C8.08985 72.3085 8.09396 72.2883 8.09752 72.2679L9.72668 63.1894C10.0239 61.9604 10.6667 60.8421 11.5793 59.9668C12.4918 59.0915 13.6358 58.4958 14.8762 58.25L24.4367 56.3701C24.6772 57.3574 25.2358 58.2383 26.0264 58.8767L37.2875 68.0098C37.7352 68.3752 38.2939 68.5774 38.8718 68.583C39.4497 68.5886 40.0123 68.3973 40.4669 68.0405L52.2224 58.8915C53.035 58.2608 53.6149 57.3777 53.8707 56.3814L63.5794 58.2075C64.9126 58.4612 66.1358 59.1178 67.084 60.0888C68.0321 61.0597 68.6595 62.2982 68.8815 63.637L69.9494 72.4806C69.9512 72.4951 69.9533 72.5095 69.9556 72.5242C70.0189 72.9177 69.9959 73.3203 69.8881 73.704C69.7804 74.0878 69.5906 74.4436 69.3318 74.7467H69.3319Z" fill="black"></path>
</g>
<defs>
<clipPath id="clip0_3965_466">
<rect width="78" height="78" fill="white"></rect>
</clipPath>
</defs>
</svg>